<svg xmlns="http://www.w3.org/2000/svg" version="1.1" viewBox="-5.0 -10.0 110.0 135.0">
 <path d="m29.918 56.684c11.551 5.6016 11.066 5.3828 11.117 5.3828 0.035156 0 0.066406-0.015625 0.10156-0.050781 1.418-1.8516 4.0664-5.3164 5.4844-7.168 0.050781-0.066406 0.035156-0.14844-0.050782-0.18359l-11.316-5.2148c-0.050781-0.015625-0.11719-0.015625-0.14844 0.035156l-5.2148 7.0156c-0.074219 0.050781-0.039063 0.14844 0.027344 0.18359zm5.3164-6.9844 11.082 5.1172-0.5 0.66797-9.668-4.4492c-0.050782-0.015625-0.11719-0.015625-0.14844 0.035156l-4.5352 6.1016-1.3008-0.63281z"/>
 <path d="m13.898 79.316c8.9336 4.1172 8.5352 3.9336 8.582 3.9336 0.035156 0 0.066406-0.015625 0.10156-0.050781 17.715-20.785 17.035-19.883 17.016-20-0.015625-0.11719 0.43359 0.18359-8.0352-4.25-0.066406-0.035157-0.13281 0-0.16797 0.050781-0.035156 0.066406 0 0.13281 0.050781 0.16797l7.8164 4.082-16.812 19.734-8.4492-3.8828c-0.066406-0.035156-0.13281 0-0.16797 0.066407-0.03125 0.046875 0 0.13281 0.066407 0.14844z"/>
 <path d="m15.016 77.117 12.934-17.965c0.035156-0.050782 0.035156-0.13281-0.035157-0.16797-0.050781-0.035156-0.13281-0.035156-0.16797 0.035156l-12.93 17.945c-0.035156 0.050781-0.035156 0.13281 0.035156 0.16797 0.046876 0.050782 0.13281 0.035157 0.16406-0.015624z"/>
 <path d="m67.199 63.648c0.015625-0.015626 0.035156-0.035157 0.050781-0.050782 1.1836-2.7656 1.75-5.832 1.6484-8.8516-0.066407-1.8672-0.38281-3.2656-1.0156-4.3984-0.035156-0.066406-0.11719-0.082031-0.16797-0.050781-0.066406 0.035156-0.082032 0.11719-0.050782 0.16797 0.61719 1.1172 0.93359 2.4648 0.98438 4.3008 0.10156 2.9648-0.46484 6-1.6328 8.7344-1.4844-1.2148-3.5156-1.3672-5.3516-0.58203-0.13281-4.7344-2.3008-9.4648-5.7852-12.648-0.050781-0.050781-0.13281-0.050781-0.18359 0-0.050781 0.050781-0.050781 0.13281 0 0.18359 3.4492 3.1484 5.582 7.8164 5.7148 12.5 0 0.035156 0.015625 0.050781 0.035156 0.066406-1.6484 0.76562-3.0352 2.25-3.6992 4.0664-2.6836-0.39844-5.2656-1.4336-7.4648-3-0.050781-0.035157-0.13281-0.035157-0.16797 0.035156-0.035156 0.050781-0.035156 0.13281 0.035157 0.16797 2.2344 1.582 4.832 2.6172 7.5352 3.0352-0.51562 1.582-0.43359 3.1484 0.13281 4.418-0.035156 0-0.066406 0-0.082031 0.015624-1.6328 1.2148-3.668 1.8984-5.6992 1.9336-0.066406 0-0.11719 0.050782-0.11719 0.13281 0 0.066406 0.050781 0.11719 0.11719 0.11719 0.11719-0.015625 3.0508 0.10156 5.8516-1.9844l0.035156-0.035156c1.8984 3.8516 7.2852 3.4336 9.832-0.53516 0.85156 0.28516 1.668 0.66797 2.418 1.1484 0.015625 0.015625 0.050781 0.015625 0.066406 0.015625 0.11719 0 0.16797-0.16797 0.066407-0.23438-0.75-0.48438-1.5664-0.86719-2.418-1.1484 0.64844-1.0508 1.0664-2.4492 1-3.832 1.6992-0.96484 3.2148-2.2148 4.4844-3.7148 0.10156-0.13281-0.082032-0.28516-0.18359-0.16797-1.2148 1.4492-2.668 2.6484-4.3008 3.582-0.17188-1.3008-0.70312-2.5195-1.6875-3.3867zm-8.6172 8.9336c-0.89844-1.168-1.2344-2.7656-0.89844-4.3984 0.61719-3.1016 3.3828-5.5 6.25-5.5 2.75 0 4.7148 2.168 4.6836 5.0352-0.28516-1.8672-1.6484-3.1992-3.4844-3.3164-2.3984-0.14844-4.75 1.8164-5.2656 4.3828-0.69922 3.5508 2.3984 6.0156 5.6172 4.5352-2.4844 1.6289-5.3672 1.2305-6.9023-0.73828z"/>
 <path d="m60.332 74.234c-0.066406-0.035156-0.13281 0-0.16797 0.066406-1.168 2.5156-2.9648 4.6992-5.1992 6.332-0.050782 0.035157-0.066406 0.11719-0.035156 0.16797 0.035156 0.050781 0.11719 0.066407 0.16797 0.035157 2.2656-1.6484 4.1016-3.8828 5.2852-6.418 0.035157-0.085938 0.015626-0.15234-0.050781-0.18359z"/>
 <path d="m64.535 74.234c-0.066406 0.015625-0.11719 0.082031-0.10156 0.14844 0.25 1.1836 0.18359 2.418-0.16797 3.5664-0.035156 0.082031 0.035156 0.16797 0.11719 0.16797 0.050782 0 0.10156-0.035157 0.11719-0.082032 0.36719-1.1992 0.43359-2.4648 0.18359-3.6992-0.015625-0.070313-0.082032-0.12109-0.14844-0.10156z"/>
 <path d="m86.25 55.449c0.015625-0.015625 0.035156-0.035157 0.050781-0.050781 0.83203-0.43359 1.9492-0.30078 2.668 0.31641 0.050781 0.050781 0.13281 0.035156 0.18359-0.015625 0.050781-0.050781 0.035156-0.13281-0.015625-0.18359-0.78516-0.66797-1.9648-0.83203-2.8828-0.38281-0.64844-1.0352-1.8672-1.6484-3.0156-1.6172-0.050781 0-0.19922 0.035156-0.28516 0.035156-0.28516-0.26562-1.1328-2.582-2.9844-2.7148 0.015625-1.1836-0.73438-2.3984-1.8828-3.0508 0.53516-1.4336 0.19922-3.1836-0.85156-4.3008 0.69922-1.3984 0.83203-2.9492 0.36719-4.3828 1.0664-1.168 1.2344-3.0664 0.38281-4.3984 1.0352-1.0664 1.3984-2.7344 0.88281-4.1328 0.93359-1.332 1.0664-3.0664 0.35156-4.3516 0-0.035156 0-0.066406-0.015625-0.082031 0.60156-1.418 0.51562-3.1016-0.25-4.4492 0-0.035156-0.015625-0.066406-0.035156-0.082031 0.58203-1.7656-0.21484-3.6836-1.6484-4.5352 0.23438-1.5-0.56641-3.0156-2.0156-3.6484-0.25-1.1836-1.0156-2.2656-2.0508-2.9336-0.28516-0.18359-0.53516-0.21484-0.78516-0.31641-0.21484-0.082031-0.23438-0.25-0.36719-0.5-0.96484-1.75-2.582-2.3164-4.3516-1.2656-0.96484-0.76562-1.8828-1.1172-2.8828-1.082-1.0664 0.035156-2.1172 0.5-2.832 1.2656-2.5352-0.46484-4.75 2.2148-4.082 4.6484-1.0508 1.0156-1.4648 2.6016-1.082 4-1.4648 0.93359-1.8984 2.8672-0.96484 4.3516-1.1016 0.93359-1.4492 2.7852-0.76562 4-1.0156 1.332-1.0156 3.3516-0.015625 4.6836-0.63281 1.3164-0.31641 3.0352 0.76562 4.1328-0.19922 1.1172 0.25 2.3516 1.1016 3.1016-0.64844 0.80078-1.2344 1.6992-1.7344 2.6836-3.0664-1.2344-6.0352-1.6992-8.8164-1.3828-3.7344 0.43359-6.9648 1.9492-9.1172 4.2852-2.3008 2.5-4.5352 5.3164-6.832 8.6172-0.14062 0.20703-19.559 28.074-19.59 28.121-0.015624 0.035157-0.015624 0.082031 0 0.11719 3.5156 6.6836 3.2852 6.25 3.3164 6.2852 0.035156 0.035156 13.566 6.7148 13.016 6.4336 0.082031 0 7.5-7.8008 10.984-11.484 0.050781 0 0.35156 0.10156 0.39844 0.11719 0.14844 0.050781 0.31641 0.11719 0.5 0.14844 1.8672 0.30078 3.832 0.10156 5.5156-0.53516 5.1172 2.9336 13 3.0156 19.465-0.71484 1.3008-0.75 2.2344-1.6836 3.332-2.6836 2.582-2.3672 4.5-5.0156 5.6836-7.8672 2.668-6.4492 2.0156-15.117-3.1992-19.934 0-0.035156-0.015625-0.066406-0.050781-0.10156-0.19922-0.14844-0.19922-0.30078-0.61719-0.76562 0.050782-0.31641 0.16797-0.41797 0.30078-0.68359 0.80078-1.7344 1.5664-3.5156 1.8164-5.418 0.44922-3.3008-0.80078-6.6328-4.1172-7.6836-1.2852-0.94922-3.0352-1.3672-4.6836-1.1016-0.98438 0.14844-1.9492 0.51562-2.8672 1.082-0.18359-0.16797-0.38281-0.31641-0.58203-0.48438 0.18359-0.56641 0.11719-1.2344-0.14844-1.918-0.25-0.60156-0.63281-1.1172-1-1.6172 0.75-1.3008 0.63281-2.9492-0.36719-4.1172 1.1484-0.96484 0.98438-2.2344 0.73438-3.6836 0.91797-1.25 1.1484-2.9648 0.64844-4.4336 1.168-0.81641 1.7148-2.4336 1.3164-3.8008 1.3008-1.1484 2.0508-2.8828 2.0156-4.6172 1.582 1.082 3.6836 0.98438 5.168-0.23438 0.050781 0.11719 0.14844 0.28516 0.30078 0.53516 0.56641 0.86719 1.5 1.418 2.2852 1.5 0.36719 0.050781 0.36719 0.050781 0.56641 0.41797 0.082031 0.13281 0.14844 0.28516 0.28516 0.41797 0.38281 0.39844 0.89844 0.66797 1.4336 0.73438-0.066406 1.582 0.86719 3.0508 2.332 3.6484-0.13281 1.1836 0.26563 2.4336 1.082 3.3828-0.31641 1.3516-0.10156 2.832 0.61719 4.0156-0.93359 1.25-0.96484 3.0508-0.10156 4.4492-0.85156 1.1836-0.98438 2.8672-0.31641 4.168-0.89844 0.83203-1.3164 2-1.0508 3.082l0.015625 0.082031c0.10156 0.41797 0.082032 0.48438-0.16797 0.86719-0.89844 1.5156-0.91797 3.5664-0.050782 5.1016-0.64844 1.168-0.51562 2.668 0.31641 3.75 0.23438 0.36719 0.36719 0.35156 0.25 0.86719 0 0.035156-0.39844 1.3672 0.33203 2.7852 0.41797 0.78516 1.1016 1.4336 1.918 1.8008 0.015626 0.015624 0.035157 0.035156 0.050782 0.035156 0.19922 1.5664 1.5352 2.8516 3.1992 2.9336 0.082032 0.89844 0.63281 1.7148 1.4336 2.1172 0.80078 0.39844 1.7852 0.35156 2.5352-0.10156 0.38281 0.64844 0.88281 1.1016 1.4648 1.3672 0.63281 0.28516 1.3516 0.38281 2.0352 0.25 0.066407-0.015625 0.11719-0.082031 0.10156-0.14844-0.015625-0.066406-0.082031-0.11719-0.14844-0.10156-0.63281 0.11719-1.3008 0.035156-1.8984-0.23438-0.56641-0.25-1.0352-0.69922-1.3828-1.332 0.38281-0.42578 0.84766-0.82812 1.3828-1.0781zm-29.133-17.781c0.082031 0.066406 0.14844 0.10156 0.23437 0.16797 0.44922 0.28516 0.48438 0.38281 0.56641 0.73437 0.050781 0.23438 0.10156 0.38281 0.26562 0.63281-0.38281 0.55078-0.76562 1.2148-1.0664 1.8672-0.18359-0.082031-0.83203-0.41797-1.7148-0.78516 0.51562-0.95312 1.082-1.8359 1.7148-2.6172zm3.6836-0.41797c0.035157-0.015625 0.050781-0.050781 0.066407-0.066406 0.46484-0.41797 1.0352-0.71484 1.668-0.88281 0.14844-0.035156 0.10156-0.035156 0.28516-0.035156 1.2852-0.035156 2.0664 0.73438 2.4492 1.9648-0.51562 0.61719-1.0352 1.2148-1.6484 1.6836-1.5508 1.168-3.1172 1.1172-4.4648-0.050781-1.3984-1.2148-0.73438-1.3672-1.25-1.918 1.043 0.019532 2.043-0.23047 2.8945-0.69531zm3.3672 7.6836c-1.4336-0.93359-3.0508-1.8516-5.0508-2.8672 0.21484-0.5 0.48437-0.96484 0.76562-1.418 1.3516 0.66797 2.6836 0.36719 3.8828-0.53516 0.60156-0.44922 1.1016-1 1.582-1.582 0.53516 2.0508-0.23047 4.4844-1.1797 6.4023zm-33.535 6.918c2.3164-3.2852 4.5352-6.1016 6.8164-8.582 2.1016-2.2852 5.2852-3.7656 8.9492-4.1992 3.5508-0.41797 7.082 0.51563 10.25 2.0664l0.48437 0.23438c0.58203 0.28516 1.1836 0.58203 1.75 0.86719 2.3516 1.1836 4.668 2.4844 6.7852 4.0508 1.3008 0.94922 2.3984 1.6992 3.3828 2.8164-1.2148-0.80078-2.3984-1.1836-3.8164-1.5664-4.3672-1.1992-9.1836-0.066406-12.734 3.3672-2.3164 2.2344-4.168 5-6.2344 7.3516-0.015625 0.015626-22.898 27.734-22.918 27.75-9.832-4.9492-10.117-5.082-12.234-6.1484 17.188-24.645 19.27-27.625 19.52-28.008zm7.668 29.113c-0.11719-0.035156-0.18359-0.035156-0.25 0-0.015625-0.050782 0-0.082032 0.015625-0.11719l2.6992-2.8984c0.11719-0.11719 0.30078 0.050781 0.18359 0.16797zm-24.016 5-3.0508-5.7852 1.9844 1 2.1484 3.9336zm11.863 4.6016c-0.050782-0.066406-0.050782-0.050781-0.43359-0.25l-2.3984-4.0664c0.035156 0.015625 0.050782 0.035156 0.082032 0.035156 0.082031 0 0.11719-0.066406 0.14844-0.11719 3.0195 5.0977 2.5703 4.3164 2.6016 4.3984zm16.785-10.816c4.4844-0.55078 7.7344-4.6016 7.3008-9.1016 0-0.066407 0.050781-0.13281 0.11719-0.13281 0.066407 0 0.13281 0.050781 0.13281 0.11719 0.44922 4.6328-2.8828 8.8008-7.5156 9.3672h-0.015625c-0.066406 0-0.11719-0.050781-0.11719-0.11719-0.019532-0.066406 0.03125-0.13281 0.097656-0.13281zm-28.449 6.3828 1.0664-0.83203 10.398 5.418 0.89844 1.5156zm58.332-16.582c-1.168 2.8164-3.0664 5.4336-5.6172 7.7852-1.082 0.98437-2 1.8984-3.2852 2.6484-6.332 3.668-14.016 3.6016-19.035 0.81641 3.0664-1.2656 5.6016-4.2852 6.2656-7.6992 0-0.14844 1.0508-4.168-1.5352-7.4492-2.5508-3.2344-2.5352-6.168-0.55078-9.5508l1.832-3.1016c0.63281-0.73438 1.332-1.5 2.0508-2.168 3.082-2.8828 7.6992-4.3164 12.234-3.0664 0.85156 0.23438 1.75 0.5 2.6172 0.89844 0.51562 0.25 1.1992 0.63281 1.6172 1 5.625 4.9023 5.957 13.719 3.4062 19.887zm-10.266-35.336c1.582-0.25 3.2656 0.14844 4.5 1.0664 1.9648 1.4492 2.582 4.1172 2.25 6.5508-0.16797 1.1836-0.55078 2.4492-1.1836 3.9844-0.11719 0.28516-0.53516 1.2344-0.66797 1.4648-0.68359-0.53516-2.2344-1.6484-3.082-2.2148 1.0156-2.0352 1.832-4.668 1.1484-6.8516-0.14844-0.51562-0.41797-1.0508-0.80078-1.4492-1.0352-1.1016-2.6836-0.91797-3.9648-0.10156-0.18359-0.53516-0.41797-0.93359-0.91797-1.418 0.88281-0.53125 1.7852-0.87891 2.7188-1.0312zm-3 1.1016c0.5 0.44922 0.81641 0.88281 1.0156 1.5664 0 0.015626 0.035156 0.11719 0.035156 0.18359-1.5352 0.81641-2.9336 0.61719-3.0352 0.61719-0.16797-0.11719-0.25-0.16797-0.39844-0.28516-0.83203-0.66797-1.2656-1.7852-1.1328-2.832 0.36719 0.16797 0.69922 0.035156 1.0508-0.035156 0.60156-0.10156 1.2148-0.015625 1.7656 0.25 0.015626 0.015625 0.035157 0.015625 0.050782 0.015625h0.015625c0.23047 0.16797 0.44922 0.33594 0.63281 0.51953zm-0.73438-0.81641c-1.1172-0.48438-1.9336-0.13281-2.332-0.11719-0.14844 0-0.35156-0.015624-0.44922-0.11719-1.0352-1-1.3516-2.5664-0.80078-3.8008 0.5 0.39844 1.832-0.035156 2.4336 0.69922 0.36719 0.5 0.75 1.0156 1 1.6016 0.26562 0.61719 0.31641 1.2344 0.14844 1.7344zm-1.1016-3.6328c-0.80078-0.69922-2.1992-0.23438-2.418-0.68359-0.015625-0.035156-0.035156-0.050782-0.066406-0.066406-0.91797-1.2148-0.93359-3.0352-0.066407-4.2656 0.11719 0.19922 0.31641 0.36719 0.58203 0.48438 0.56641 0.23437 1.0508 0.13281 1.4648 0.64844 0 0.015625 0.015624 0.015625 0.015624 0.035156 1.0078 1.0469 1.1914 2.5977 0.48828 3.8477zm-0.34766-4.1172c-0.43359-0.48438-1.0156-0.44922-1.5-0.64844-0.28516-0.11719-0.48438-0.31641-0.51563-0.53516 0-0.015625-0.015624-0.035156-0.035156-0.050781-0.64844-1.1016-0.35156-2.8008 0.63281-3.6836 0.30078 0.58203 1.0156 0.68359 1.4844 0.91797 0.53516 0.26562 0.55078 0.56641 0.60156 0.63281 0.23047 1.332 0.36328 2.5-0.66797 3.3672zm0.76562-3.7344c-0.35156-0.51562-1-0.61719-1.4648-0.85156-0.16797-0.082031-0.44922-0.26562-0.55078-0.56641 0-0.015625-0.015626-0.035156-0.035157-0.066406 0 0 0-0.015625-0.015625-0.015625-0.86719-1.3008-0.56641-3.1016 0.80078-4.0156 0.30078 0.69922 1.1484 0.48438 1.75 1.3672 0 0.015624 0.015624 0.015624 0.035156 0.035156 0.49609 1.3477 0.28125 2.9297-0.51953 4.1133zm0.63281-4.3828c-0.5-0.64844-0.94922-0.64844-1.3516-0.89844-0.19922-0.13281-0.33203-0.30078-0.33203-0.46484 0-0.015625-0.015625-0.050781-0.015625-0.066406-0.38281-1.332 0.035156-2.832 1.0352-3.7852 0.5 0.69922 1.5352 0.86719 1.8672 1.582 0 0.015625 0.015625 0.015625 0.015625 0.035156v0.035156c0.39844 1.2812-0.13281 2.7969-1.2188 3.5625zm1.3516-3.832c-0.55078-0.94922-1.9492-0.91797-2.1016-2.1992-0.16797-2.1328 1.8008-4.1328 3.8984-3.75-0.050781 0.41797-0.015624 0.85156 0.082032 1.25-0.015625 0.015626-0.015625 0.050782-0.015625 0.066407 0.12109 1.7148-0.59766 3.4648-1.8633 4.6328zm2.1484-4.6836c-0.19922-0.75-0.082031-1.3008-0.082031-1.3828 0.68359-0.69922 1.6484-1.1328 2.6328-1.1484 0.94922-0.015626 1.7852 0.30078 2.7148 1.0352-0.14844 0.41797-0.19922 0.86719-0.18359 1.3008-1.4492 1.2617-3.5469 1.3281-5.082 0.19531zm7.5508 1.832c-0.75-0.19922-1.4336-0.68359-1.8828-1.3672-0.10156-0.14844-0.28516-0.48438-0.31641-0.58203 0.015624-0.035156 0-0.066406-0.015626-0.082031-0.035156-0.43359 0.035157-0.86719 0.18359-1.25 0.51562-0.31641 1.2852-0.63281 2.082-0.46484 0.91797 0.18359 1.6484 0.96484 2.0352 1.7852 0.050781 0.10156 0.10156 0.19922 0.18359 0.28516-0.83203 0.26562-1.4648 1.1016-1.8828 1.75-0.13672-0.039063-0.28516-0.039063-0.38672-0.074219zm1.2188 0.93359c-0.23438-0.23437-0.33203-0.66797-0.60156-0.80078 1.082-1.668 1.8008-1.5664 1.918-1.6484 0.26563 0.10156 0.46484 0.11719 0.69922 0.26562 0.93359 0.60156 1.6328 1.5664 1.8984 2.6172-1.0508-0.35156-1.8984-0.28516-2.5664 0.23438-0.5-0.050781-0.98437-0.30078-1.3477-0.66797zm1.5 0.86719c0.64844-0.48438 1.4648-0.51562 2.5508-0.11719 1.3516 0.56641 2.1172 1.9492 1.9336 3.3672-0.69922-0.14844-1.5156-0.11719-2.5352 0.10156-1.2852-0.65234-2.0195-1.9688-1.9492-3.3516zm2.3164 3.5352c0.88281-0.16797 1.6172-0.16797 2.2148-0.015625 1.3164 0.75 2.1484 2.5156 1.6172 4.1992-0.5-0.30078-1.082-0.5-1.668-0.53516-0.36719-0.015625-0.81641 0.015625-1.082-0.23438-0.83203-0.91797-1.2148-2.1484-1.0664-3.3164 0.015624-0.03125 0-0.066406-0.015626-0.097656zm1.082 3.7148c0.35156 0.19922 0.71484 0.16797 1.082 0.18359 0.58203 0.035156 1.1836 0.23438 1.668 0.56641 0.73438 1.25 0.85156 2.832 0.31641 4.1836-0.76562-0.76562-1.5352-0.68359-1.9648-0.80078-0.21484-0.066406-0.38281-0.19922-0.44922-0.35156 0-0.015625-0.015626-0.035156-0.035157-0.035156-0.66797-1.0977-0.90234-2.4805-0.61719-3.7461zm0.55078 4.0664c0.31641 0.36719 0.83203 0.36719 1.1992 0.43359 0.48438 0.10156 0.91797 0.35156 1.25 0.71484 0 0.015625 0 0.035156 0.015625 0.035156 0.71484 1.1992 0.61719 2.8516-0.23438 4.1328-0.56641-0.55078-1.3828-0.43359-1.8672-0.76562-0.33203-0.21484-0.28516-0.33203-0.33203-0.39844-0.86719-1.2852-0.86719-2.9688-0.03125-4.1523zm-0.11719 4.4844c0.082031 0.11719 0.19922 0.19922 0.31641 0.28516 0.56641 0.38281 1.3672 0.21484 1.8984 0.80078 0.015625 0.015625 0.015625 0.015625 0.035157 0.035156 0.48437 1.2656 0.18359 2.8008-0.73438 3.8008-0.33203-0.55078-1.0508-0.63281-1.5352-0.88281-0.18359-0.10156-0.14844-0.13281-0.19922-0.18359-0.61328-1.207-0.51563-2.7383 0.21875-3.8555zm-0.31641 4.1328c0.36719 0.35156 1.3516 0.35156 1.6484 0.98438-0.015625 0.035156-0.015625 0.082031 0.015625 0.11719 0.81641 1.1992 0.71484 2.9336-0.21484 4.0508-0.51562-1.0156-2.168-0.61719-2.2656-1.8828 0-0.035156-0.015625-0.050781-0.035156-0.066406-0.015625-0.13281-0.050781-0.26562-0.082031-0.38281-0.23438-0.98828 0.13281-2.0703 0.93359-2.8203zm-1.1016 3.9492c0.035156-0.050781 0.082031-0.13281 0.13281-0.23437 0.43359 1.0156 1.9844 0.76562 2.25 1.6836v0.050781c0.46484 1.3828 0.35156 2.8672-0.30078 4.1992-0.55078-0.5-1.332-0.68359-2.1172-0.85156-0.83203-1.4648-0.83203-3.3984 0.035157-4.8477zm0.25 8.5508c-0.76562-0.98438-0.88281-2.3672-0.30078-3.4492 0.78516 0.14844 1.582 0.35156 2.082 0.88281 1.0156 1.0508 1.3672 2.6992 0.86719 4.0664-0.48438-0.38281-0.98438-0.53516-1.5156-0.56641-0.18359-0.015626-0.36719-0.035157-0.51562-0.11719-0.14844-0.082031-0.26562-0.21484-0.30078-0.38281-0.015625-0.035157-0.13281-0.19922-0.31641-0.43359zm0.61719 3.6836c-0.39844-0.76563-0.51562-1.6992-0.33203-2.5508 0.015625-0.050781 0.035156-0.11719 0.050781-0.19922 0.21484 0.19922 0.48438 0.23437 0.78516 0.25 0.58203 0.050781 1.0664 0.23437 1.5156 0.61719 0.015624 0.015625 0.050781 0.035156 0.082031 0.035156h0.015625c1.1016 0.60156 1.8164 1.7656 1.7852 2.8828-1.2148 0.21484-1.5156 0.76562-1.9844 0.71484-0.035156-0.015626-1.2344-0.44922-1.918-1.75zm2 1.9844c0.28516-0.015624 0.46484-0.13281 0.71484-0.28516 0.69922-0.39844 1.332-0.43359 1.3984-0.46484 0.71484 0.050782 1.2852 0.51563 1.5664 0.80078 0.56641 0.58203 0.91797 1.3164 1.1484 1.6836-0.66797 0.19922-1.3672 0.38281-1.8008 0.91797-1.5273-0.039062-2.793-1.1719-3.0273-2.6523zm6.8516 4.6641v0c-0.68359 0.44922-1.6172 0.5-2.3516 0.13281-0.73438-0.36719-1.2344-1.1484-1.3008-1.9492 0.39844-0.53516 1.168-0.71484 1.8164-0.89844 0.11719 0.050781 0.31641-0.015625 0.39844-0.015625 1.0508-0.035156 2.1836 0.53516 2.8008 1.5-0.54688 0.28125-1.0312 0.71484-1.3633 1.2305z"/>
 <path d="m38.066 45.316c1.582-2.0664 3.7852-3.6992 6.2148-4.6172 1.168-0.43359 2.4492-0.53516 3.668-0.58203 1.3984-0.066407 2.8008 0.066406 4.1484 0.38281 0.066406 0.015625 0.13281-0.035156 0.14844-0.10156 0.015625-0.066407-0.035156-0.13281-0.10156-0.14844-1.3828-0.33203-2.8008-0.46484-4.2148-0.39844-1.2344 0.066407-2.5508 0.14844-3.75 0.60156-2.4648 0.93359-4.7148 2.6016-6.3164 4.6992-0.050781 0.050781-0.035156 0.13281 0.015625 0.16797 0.070313 0.046876 0.13672 0.046876 0.1875-0.003906z"/>
<text x="0.0" y="117.5" font-size="5.0" font-weight="bold" font-family="Arbeit Regular, Helvetica, Arial-Unicode, Arial, Sans-serif" fill="#000000">Created by Vectors Market</text><text x="0.0" y="122.5" font-size="5.0" font-weight="bold" font-family="Arbeit Regular, Helvetica, Arial-Unicode, Arial, Sans-serif" fill="#000000">from Noun Project</text></svg>