<svg xmlns="http://www.w3.org/2000/svg" version="1.1" viewBox="-5.0 -10.0 110.0 135.0">
 <path d="m89.062 3.125h-78.125c-4.3125 0-7.8125 3.5-7.8125 7.8125v53.125c0 4.3125 3.5 7.8125 7.8125 7.8125h29.688v18.75h-21.875c-1.7188 0-3.125 1.4062-3.125 3.125s1.4062 3.125 3.125 3.125h62.5c1.7188 0 3.125-1.4062 3.125-3.125s-1.4062-3.125-3.125-3.125h-21.875v-18.75h29.688c4.3125 0 7.8125-3.5 7.8125-7.8125v-53.125c0-4.3125-3.5-7.8125-7.8125-7.8125zm-78.125 6.25h78.125c0.875 0 1.5625 0.6875 1.5625 1.5625v4.6875h-81.25v-4.6875c0-0.875 0.6875-1.5625 1.5625-1.5625zm-1.5625 54.688v-42.188h37.5v43.75h-35.938c-0.875 0-1.5625-0.6875-1.5625-1.5625zm43.75 26.562h-6.25v-18.75h6.25zm35.938-25h-35.938v-43.75h37.5v42.188c0 0.875-0.6875 1.5625-1.5625 1.5625z"/>
 <path d="m73.438 28.125h-3.125c-4.3125 0-7.8125 3.5-7.8125 7.8125v15.625c0 4.3125 3.5 7.8125 7.8125 7.8125h3.125c4.3125 0 7.8125-3.5 7.8125-7.8125v-15.625c0-4.3125-3.5-7.8125-7.8125-7.8125zm1.5625 23.438c0 0.875-0.6875 1.5625-1.5625 1.5625h-3.125c-0.875 0-1.5625-0.6875-1.5625-1.5625v-15.625c0-0.875 0.6875-1.5625 1.5625-1.5625h3.125c0.875 0 1.5625 0.6875 1.5625 1.5625z"/>
 <path d="m29.688 28.125h-3.125c-4.3125 0-7.8125 3.5-7.8125 7.8125v15.625c0 4.3125 3.5 7.8125 7.8125 7.8125h3.125c4.3125 0 7.8125-3.5 7.8125-7.8125v-15.625c0-4.3125-3.5-7.8125-7.8125-7.8125zm1.5625 23.438c0 0.875-0.6875 1.5625-1.5625 1.5625h-3.125c-0.875 0-1.5625-0.6875-1.5625-1.5625v-15.625c0-0.875 0.6875-1.5625 1.5625-1.5625h3.125c0.875 0 1.5625 0.6875 1.5625 1.5625z"/>
<text x="0.0" y="117.5" font-size="5.0" font-weight="bold" font-family="Arbeit Regular, Helvetica, Arial-Unicode, Arial, Sans-serif" fill="#000000">Created by Ericka Septi Widyaningrum</text><text x="0.0" y="122.5" font-size="5.0" font-weight="bold" font-family="Arbeit Regular, Helvetica, Arial-Unicode, Arial, Sans-serif" fill="#000000">from Noun Project</text></svg>