<svg xmlns="http://www.w3.org/2000/svg">
  <defs>
    <symbol id="icon-basketball" viewBox="-5.0 -10.0 110.0 135.0">
     <path d="m88.777 71.938c-0.875-2.8594-1.9844-2.5352-1.9844-2.5352s-2.3516 0.78516-3.5039 0.78516c-1.1523 0-5.2578-1.9844-7.375-3.1328-2.1211-1.1523-5.2578-1.1992-6.9609-2.0742-1.707-0.875-2.0312-2.3516-2.0312-2.3516l0.23047-0.73828-4.2422-4.5664c-1.6602-7.5156-3.918-7.7461-3.918-7.7461s-2.0742 0.18359-0.82813-1.9375c1.2461-2.1211 2.7539-8.8516 2.7539-8.8516 2.4023-2.9766 1.3477-3.5781 2.5586-4.6016 1.2109-1.0195 1.332-2.8164 1.7656-3.6836 0.42969-0.86719 2.4023-3.2695 2.957-4.2695 0.55469-1.0039 0.91797-3.9414 1.5547-5.0508 0.64062-1.1055 0.53516-2.5234 0.53516-2.5234 0.035157-2.2812-0.035156-3.1484-0.10547-3.4062-0.070313-0.25781-0.98438-2.3164-1.2461-2.8359-0.25781-0.51953-0.72656-0.36328-0.72656-0.36328-0.10156-0.22656-0.46875-0.20703-0.46875-0.20703s-0.13672 0.10156-0.28906 0.23828c-0.72656-0.5-1.6016-0.79297-2.5469-0.79297-2.4922 0-4.5117 2.0195-4.5117 4.5117 0 2.4922 2.0195 4.5117 4.5117 4.5117 1.2031 0 2.2891-0.47656 3.0977-1.2461 0.12891 0.042969 0.43359 0.21094 0.16797 0.78125-0.32812 0.71094-1.9375 2.3164-2.8711 3.5781-0.93359 1.2617-2.1094 4.6523-2.1094 4.6523-0.38281 0.24219-1.5898 1.918-1.5898 1.918 0.58594-3.6484-4.9961-4.2031-5.2891-4.2031s-0.48438 0.69141-0.57031 0.79688c-0.60938 0.73438-2.0391 1.7109-2.0391 1.7109v0.82812c-1.1758 0.64063-1.2617 1.1758-1.2617 1.1758l0.36328 0.19141s-0.20313 0.26953-0.60547 1.3828c-0.63672 1.7656 1.0391 2.3008 1.0391 2.3008 1.3359 0.16406 3.5156-1.0039 3.5156-1.0039s-0.45312 1.0703-3.9648 1.832c-4.8047 1.0391-4.5664 5.707-4.7734 6.3984s-1.3125 3.5273-2.4883 4.4258c-1.1758 0.89844-3.3555 5.8086-4.4961 7.2617s-1.5234 1.5898-2.0039 2.8359c-0.48438 1.2461-1.9727 3.0586-1.9727 3.0586-0.070313 0.34766-0.48438 0.96875-0.96875 2.0586-0.99219 2.2305 0.48437 2.2109 0.51953 1.7812 0.078125-0.95312 1.2461-2.7148 1.2461-2.7148s0.3125-0.53516 0.29297 1.6445c-0.015625 2.1797 0.58984 1.8828 0.76172 1.8828s0.10156-2.6953 0.20703-2.4375c0.10547 0.25781-0.10156 2.7812 0.44922 2.7305 0.55469-0.050781 0.64062-2.8711 0.64062-2.8711s0.39844 2.0938 1.0703 1.8672c0.67578-0.22656-0.67578-1.8164 0.070312-3.4766 0.74219-1.6602-0.32812-2.3516 0.29297-3.3047 0.625-0.94922 5.4141-4.9766 5.4141-4.9766 1.6602-0.69141 2.4492-4.4453 3.0898-5.1992 1.5781-1.8438 3.5039-5.082 3.5039-5.082-0.38672 1.8203-2.9453 4.7852-3.3438 5.5391-0.34375 0.65625-1.2109 2.8008-1.2109 2.8008 0 3.875 5.0625 16.652 5.7539 17.758 0.69141 1.1055 1.2891 2.8594 1.2891 2.8594l1.8906-0.41406s4.2891 6.1328 7.8359 10.008c3.5508 3.875 5.1641 9.3594 5.1641 9.3594 0 0.14062-1.2461 5.5312 0.14062 5.9023 2.6641 0.71094 6.3164-8.7148 5.8555-9.9141-0.46094-1.1992-3.5938-1.4297-3.5938-1.4297s-1.9375-1.6602-2.8594-3.9219c-0.92188-2.2578-4.2422-7.1016-5.6719-8.3906-1.4297-1.2891-1.3359-2.8125-1.3359-2.8125 1.0586 0.82812 6.3633 2.4922 6.3633 2.4922l11.203 2.7656s3.0898 0.046875 4.6094 4.1953c1.5234 4.1484 3.043 3.8281 3.043 3.8281 4.5156-0.67969 0.875-6.7227 0-9.582z"/>
  </defs>
</svg>
