<svg xmlns="http://www.w3.org/2000/svg" version="1.1" viewBox="-5.0 -10.0 110.0 135.0">
 <path d="m11.883 57.383c-0.066406-0.007812-0.13281-0.003906-0.19531 0.011719-0.82031-2.5078-1.2617-5.1875-1.2617-7.9688 0-1.9727 0.22266-3.8945 0.64453-5.7383 0.45313 2.9805 1.5781 4.9414 3.0195 6.1016 1.0312 0.82813 2.2109 1.2461 3.4258 1.3281 0.26562 0.019531 0.53125 0.019531 0.79688 0.007812 0.54297 1.75 1.1953 3.4258 1.9492 5.0234-3.5508 0.97266-6.4453 1.4219-8.375 1.2344zm5.8555-18.242c0.082031 3.6992 0.61328 7.2305 1.5312 10.516 0.42578-0.09375 0.84375-0.23047 1.2539-0.40625 1.8984-0.81641 3.5-2.4492 3.9961-4.3711 0.11328-0.44922 0.24219-0.97266 0.37109-1.5039 1.582-6.5 3.3594-13.777 17.859-18.699-2.1328-0.57422-4.375-0.88281-6.6875-0.88281-7.0312 0-13.402 2.832-18.035 7.418 0.10938 0.13672 0.16406 0.31641 0.13672 0.5-0.34375 2.5352-0.48047 5.0156-0.42578 7.4297zm-5.5273 2.4648c0.16797 3.707 1.25 5.9609 2.7188 7.1406 0.80078 0.64453 1.7266 0.96875 2.6758 1.0391 0.10547 0.007813 0.21094 0.011719 0.32031 0.011719-0.91406-3.332-1.4375-6.8984-1.5234-10.633-0.046875-2.1367 0.050781-4.3242 0.30078-6.5469-2.1211 2.4414-3.7891 5.2891-4.8711 8.4141 0.21484 0.10156 0.36719 0.32031 0.37891 0.57422zm33.387 21.996c-4.5547 0.39844-8.5781-0.28906-11.938-1.2578-2.7031-0.78125-5.4531-0.85547-7.5547-0.097656-0.12891 0.046875-0.25781 0.097656-0.37891 0.14844 4.2969 5.2773 10.074 8.7891 16.703 9.6875 1.2969 0.17578 2.6289 0.25 3.9844 0.22266 0.24219-0.003907 0.46094 0.12109 0.58203 0.31641 2.6875-1.2695 5.1172-2.9883 7.1914-5.0664 2.4648-2.4648 4.4297-5.4258 5.7305-8.7227-5.1797 3.0273-9.9883 4.3867-14.316 4.7695zm-24.082 1.6094c0.30469-1.0625 0.84375-1.9375 1.5625-2.6406 0.20703-0.20312 0.42578-0.39062 0.66016-0.5625-1.0625-1.4414-2.0273-2.9961-2.8789-4.6445-3.5938 0.99609-6.5898 1.4922-8.6875 1.3828 1.3008 3.332 3.2773 6.3281 5.7617 8.8125 1.1758 1.1758 2.4648 2.2383 3.8516 3.168-0.66016-2.2031-0.69531-4.0352-0.26953-5.5156zm3.0352-2.1484c-0.19141 0.14062-0.37109 0.29297-0.53906 0.45703-0.55859 0.54688-0.97656 1.2305-1.2148 2.0547-0.41016 1.4258-0.29688 3.2812 0.54688 5.6172 0.058594 0.16406 0.050781 0.33984-0.015625 0.48828 3.75 2.1484 8.0977 3.3789 12.73 3.3789 2.9844 0 5.8477-0.50781 8.5117-1.4453-0.78516-0.035156-1.5547-0.10547-2.3164-0.21094-7.0547-0.95703-13.184-4.7109-17.703-10.344zm1.6367-19.375c-0.11719 0.48828-0.23828 0.97266-0.37891 1.5195-0.60156 2.3359-2.5078 4.3047-4.7578 5.2695-0.45312 0.19531-0.92188 0.35156-1.3984 0.46094 0.53516 1.6875 1.1719 3.3047 1.9102 4.8398 3.0781-0.91016 6.5781-2.1719 10.32-3.7188 0.73828-0.30469 1.4883-0.62109 2.2422-0.94922-0.28516-0.82031-0.44922-1.6719-0.49609-2.5469-0.17578-3.082 1.0742-6.3945 3.3008-9.3516 2.1992-2.918 5.3594-5.5 9.0391-7.1719 2.1758-0.98828 4.5391-1.6602 6.9961-1.8906-2.4219-2.125-5.25-3.8008-8.3516-4.8984-0.078125 0.16016-0.21484 0.28516-0.39844 0.34375-14.762 4.6953-16.488 11.781-18.023 18.094zm19.977 12.926c-3.9219 0.23828-7.6211-0.39453-9.9453-2.3789-0.625-0.53516-1.1523-1.1641-1.5586-1.8984-0.76562 0.33203-1.5234 0.65234-2.2734 0.96094-3.6797 1.5195-7.1406 2.7695-10.223 3.6914 0.80859 1.5352 1.7188 2.9844 2.7188 4.332 0.25-0.12109 0.50781-0.22656 0.77344-0.32422 2.3633-0.85156 5.4062-0.78125 8.3711 0.070312 3.2227 0.92969 7.0781 1.5898 11.453 1.2031 4.3711-0.38281 9.2656-1.8164 14.566-5.0742 0.14844-0.089843 0.32031-0.11719 0.47656-0.085937 0.59766-1.9023 0.97656-3.8984 1.1133-5.9648-1.0625 0.98047-2.5742 1.9102-4.3477 2.7148-3.1953 1.4492-7.2812 2.5234-11.129 2.7578zm-9.0781-3.3984c2.0312 1.7344 5.3906 2.2812 9 2.0625 3.6836-0.22266 7.5977-1.25 10.656-2.6406 2.0039-0.91016 3.6172-1.9609 4.5312-3.0312 0.11328-0.13281 0.26562-0.20703 0.42187-0.22656-0.007812-3.6641-0.78125-7.1484-2.1758-10.297-7.6562 4.9258-15.988 9.3281-23.629 12.715 0.31641 0.54688 0.71875 1.0195 1.1953 1.4258zm17.086-21.934c-0.10547 0.082031-0.23438 0.13672-0.37891 0.14453-2.5508 0.14453-5.0156 0.80469-7.2773 1.832-3.4688 1.5742-6.4492 4.0117-8.5195 6.7578-2.043 2.7109-3.1914 5.7148-3.0352 8.4727 0.039062 0.71094 0.16797 1.4102 0.39062 2.082 7.625-3.3789 15.949-7.7812 23.59-12.711-1.2344-2.4375-2.8438-4.6484-4.7578-6.5586l-0.015625-0.015625zm22.844 5.6953c-7.2695-8.668-17.848-14.344-32.156-14.344-0.21875 0-0.39453 0.17578-0.39453 0.39453s0.17578 0.39453 0.39453 0.39453c14.051 0 24.43 5.5625 31.555 14.059 8.4844 10.113 12.375 24.383 12.375 38.387 0 0.21875 0.17578 0.39453 0.39453 0.39453s0.39453-0.17578 0.39453-0.39453c0-14.176-3.9492-28.629-12.559-38.895zm-4.8867 27.633c-4.7344-0.55859-9.9688 1.5508-15.348 3.8711-0.19922 0.085937-0.29297 0.31641-0.20703 0.51562 0.085937 0.19922 0.31641 0.29297 0.51562 0.20703 5.2773-2.2773 10.41-4.3477 14.949-3.8125 4.4922 0.52734 8.4648 3.6406 11.547 11.719 0.078124 0.20312 0.30469 0.30469 0.50781 0.22656 0.20312-0.078126 0.30469-0.30469 0.22656-0.50781-3.207-8.4102-7.4141-11.656-12.191-12.219zm-2.3984-25.23c-3.668-2.6367-7.5195-3.8984-10.363-3.8984-0.21875 0-0.39453 0.17578-0.39453 0.39453s0.17578 0.39453 0.39453 0.39453c2.6992 0 6.3789 1.2109 9.9023 3.7461 2.8906 2.0781 5.668 5.043 7.707 8.957 0.10156 0.19141 0.33984 0.26953 0.53125 0.16797 0.19141-0.10156 0.26953-0.33984 0.16797-0.53125-2.1016-4.0312-4.9648-7.0859-7.9453-9.2305zm13.375 27.09c0.0625 0.20703 0.28125 0.32812 0.48828 0.26562s0.32812-0.28125 0.26562-0.48828c-0.84766-2.8398-3.8477-8.4648-7.9141-12.922-2.8281-3.1016-6.1836-5.6484-9.7148-6.3398-0.21484-0.042969-0.42188 0.097656-0.46094 0.3125-0.042969 0.21484 0.097657 0.42188 0.3125 0.46094 3.3438 0.65625 6.5547 3.1094 9.2852 6.0977 3.9844 4.3672 6.918 9.8555 7.7422 12.617zm-14.57-9.0586c-2.6914-0.0625-5.1133 0.67188-6.5312 1.4102-0.19141 0.097657-0.26953 0.33594-0.16797 0.53125 0.097656 0.19141 0.33594 0.26953 0.53125 0.16797 1.332-0.69141 3.6133-1.3828 6.1523-1.3203 1.832 0.042969 3.7969 0.48047 5.6289 1.5977 0.18359 0.11328 0.42578 0.054687 0.53906-0.13281 0.11328-0.18359 0.054688-0.42578-0.13281-0.53906-1.9648-1.1953-4.0664-1.6641-6.0234-1.7109z" fill-rule="evenodd"/>
<text x="0.0" y="117.5" font-size="5.0" font-weight="bold" font-family="Arbeit Regular, Helvetica, Arial-Unicode, Arial, Sans-serif" fill="#000000">Created by Ishaq_hmad</text><text x="0.0" y="122.5" font-size="5.0" font-weight="bold" font-family="Arbeit Regular, Helvetica, Arial-Unicode, Arial, Sans-serif" fill="#000000">from Noun Project</text></svg>